<?xml version="1.0" encoding="UTF-8"?>
<svg width="3871px" height="2367px" viewBox="0 0 3871 2367" version="1.1" xmlns="http://www.w3.org/2000/svg" xmlns:xlink="http://www.w3.org/1999/xlink">
    <!-- Generator: Sketch 57.1 (83088) - https://sketch.com -->
    <title>composition-12</title>
    <desc>Created with Sketch.</desc>
    <g id="composition-12" stroke="none" stroke-width="1" fill="none" fill-rule="evenodd">
        <rect fill="#2941AB" x="0" y="0" width="3871" height="2367"></rect>
        <path d="M3330.80327,-281.633098 C3605.4729,-173.033189 3649.80249,342.164781 3562.88172,742.681247 C3475.96095,1143.19771 3258.65903,1428.16387 3123.06263,1708.78604 C2987.46623,1988.53941 2934.44456,2263.07998 2769.29509,2297.83195 C2604.14563,2331.71512 2325.99917,2126.67849 1980.0545,2221.37761 C1633.24063,2316.94553 1217.75935,2711.3804 1066.51721,2672.28444 C914.405865,2633.18847 1026.53366,2160.56166 847.476872,1748.75081 C668.420087,1336.93995 197.309514,986.813843 325.952254,906.01551 C453.725785,825.217178 1182.12184,1013.74662 1569.78847,942.50508 C1956.5859,871.263539 2002.6539,541.119815 2278.19274,225.745678 C2552.86238,-89.6284583 3057.00284,-389.364208 3330.80327,-281.633098 Z" id="Path" fill="#1ED760" fill-rule="nonzero"></path>
        <g id="Character/selfie" transform="translate(818.000000, 190.000000)">
            <path d="M1356.64075,995.540636 C1359.90092,994.259801 1369.49588,988.195737 1373.01387,988.875954 C1378.79929,989.995177 1388.38943,1006.54472 1392.31705,1011.24835 C1404.97701,1026.41816 1417.63938,1041.58797 1430.30174,1056.75778 C1435.3691,1062.82908 1442.67737,1069.20431 1446.28693,1076.23081 C1449.06518,1081.63636 1450.01696,1089.08981 1451.67476,1094.88371 C1472.26466,1166.85166 1492.40155,1239.28515 1507.39881,1312.65696 C1510.62765,1328.44909 1513.69023,1344.35219 1515.48537,1360.38312 C1516.36969,1368.30693 1518.69735,1379.95022 1515.24682,1387.6087 C1511.35534,1396.23926 1498.83514,1399.82608 1490.70039,1402.50112 C1474.87664,1407.70888 1458.30834,1410.80845 1441.91594,1413.59203 C1402.41803,1420.29531 1362.42616,1424.18847 1322.50658,1427.33869 C1310.31167,1428.30113 1297.75773,1428.28424 1285.63993,1429.92448 C1279.85211,1430.70601 1281.58701,1429.15261 1279.76296,1433.03853 C1277.22326,1438.44409 1278.90756,1449.72315 1278.60636,1455.61595 L1278.60636,1455.61595 L1276.47629,1497.20087 C1274.53898,1535.01082 1272.60167,1572.82076 1270.66678,1610.63071 C1268.70297,1648.96409 1266.74156,1687.29747 1264.77534,1725.63085 C1264.03319,1740.15421 1263.28863,1754.67998 1262.54648,1769.20576 C1262.1489,1776.96795 1263.332,1786.99272 1261.25012,1794.50888 C1259.67425,1800.19424 1262.26456,1798.51782 1255.29363,1798.85551 C1239.14941,1799.63463 1222.42208,1797.68081 1206.27304,1797.1019 C1187.95779,1796.44822 1169.64013,1795.79212 1151.32006,1795.13844 C1146.08886,1794.95029 1140.2432,1796.43375 1138.13482,1792.6829 C1135.56861,1788.11676 1137.52278,1775.56169 1137.34206,1770.46247 C1136.83364,1756.25269 1136.32522,1742.04049 1135.8168,1727.8307 L1135.8168,1727.8307 L1131.63135,1610.80439 C1129.72778,1557.60512 1127.8218,1504.40345 1125.91822,1451.19936 C1105.55001,1455.29997 1085.17938,1459.39815 1064.80875,1463.49634 C1034.71064,1469.55317 1004.61011,1475.61 974.50958,1481.66441 C960.705071,1484.44317 944.310259,1490.78222 930.055158,1488.73674 C915.89644,1486.70574 910.043559,1480.65856 909.248396,1467.22065 C908.395404,1452.81548 908.727926,1438.29695 908.920693,1423.87972 C909.238758,1400.29644 909.915851,1376.71799 910.807398,1353.14918 C951.023361,1349.52859 991.241734,1345.90559 1031.4577,1342.28259 C1052.87167,1340.3529 1074.28806,1338.42561 1095.69963,1336.49592 C1100.55976,1336.05933 1112.54021,1336.99764 1114.70884,1333.33363 C1118.08226,1327.63862 1114.32812,1308.91576 1114.22692,1302.47541 C1113.90645,1282.17985 1113.58838,1261.88429 1113.26791,1241.58873 C1112.09685,1166.91197 1110.92579,1092.23762 1109.75232,1017.56086 C1119.38102,1017.87685 1129.00972,1018.16389 1138.63842,1018.43405 C1180.52904,1019.61599 1222.62689,1021.32859 1264.52957,1020.04052 C1285.54355,1019.39648 1305.45395,1013.72801 1325.29206,1007.0392 C1335.84122,1003.48374 1346.28195,999.612291 1356.64075,995.540636 Z M1316.2165,1197.29336 L1294.81569,1301.95221 L1368.04822,1297.10004 L1316.2165,1197.29336 Z" id="Accent" fill="#FF5678"></path>
            <g id="Ink" stroke-width="1" transform="translate(665.339663, 51.770833)" fill="#000000">
                <path d="M1262.56123,296.72472 C1261.06502,308.365692 1262.12995,321.056832 1248.98696,324.125443 C1236.82458,326.967642 1223.4792,326.170381 1211.07829,327.165151 C1197.14263,328.28517 1183.24792,329.814658 1169.34117,331.192402 C1151.80835,332.929033 1154.30926,326.192059 1150.47598,311.219934 C1146.97279,297.548476 1141.38311,283.903513 1136.73307,270.569266 C1134.57188,264.371827 1131.99147,258.670569 1129.04484,252.82961 C1126.37528,247.542638 1127.64501,240.35043 1124.76825,235.906484 C1114.95257,220.744076 1067.07884,262.206457 1062.63119,254.033931 C1070.73141,247.728104 1084.7514,240.673188 1087.23544,229.882468 C1090.15798,217.200962 1082.09871,213.414575 1071.97222,218.051213 C1047.05235,229.465773 1018.29438,238.387386 991.116942,242.547113 C999.90624,236.672432 1079.40265,190.371088 1052.72395,176.637005 C1046.71022,173.541899 1038.67986,179.368406 1033.25642,181.572315 C1024.65024,185.072073 1015.66096,187.418091 1006.67651,189.711119 C997.210181,192.126988 987.719762,194.451329 978.200431,196.648011 C971.52413,198.189543 959.621955,203.664388 953.116718,202.31314 C946.512697,200.940213 958.212487,196.840703 960.127918,195.874837 C968.481125,191.666938 976.699408,187.145915 984.852639,182.567084 C999.320769,174.442731 1012.68301,165.032163 1023.6865,152.47109 C1031.98911,142.99308 1045.69829,122.29561 1039.91827,109.190183 C1036.56928,101.593323 1029.228,94.5721289 1024.91526,87.3751036 C1019.87973,78.9689395 1015.81516,70.0087874 1011.44219,61.2509614 C1018.76179,64.4689085 1026.97767,65.2926644 1034.44905,68.1806274 C1041.92044,71.070999 1049.50747,73.4097914 1057.28003,75.5583009 C1072.87332,79.8673633 1088.42084,80.6333118 1103.87439,84.1282528 C1121.36625,88.0832446 1139.59296,92.5055132 1157.36431,94.7913154 C1172.83714,96.7784459 1186.75112,101.01284 1200.00975,109.447908 C1227.08359,126.67934 1245.86445,151.432965 1255.36451,182.044409 C1260.9301,199.976756 1262.28415,218.687095 1262.93949,237.344444 C1263.63098,257.015831 1265.0814,277.140044 1262.56123,296.72472 M1110.61574,298.172315 C1091.7096,311.952161 1069.66889,322.721204 1049.37978,334.44407 C1037.76913,341.149732 1025.91273,347.417021 1014.07079,353.703579 C1005.66699,358.164386 995.456176,366.373042 986.206692,368.661253 C980.354388,370.108847 980.79048,370.219645 977.087313,364.8845 C973.547982,359.79022 970.456789,354.30574 967.143937,349.059716 C961.036242,339.386605 954.870722,329.749625 948.705203,320.112644 C934.882778,298.509525 921.086856,276.911223 906.563311,255.768154 C891.993988,234.552827 878.017365,212.947299 863.903409,191.430891 C857.342757,181.427796 850.823064,171.386163 843.862459,161.657654 C838.54503,154.229399 824.917762,142.899142 831.389269,134.15336 C837.40059,126.029007 851.09532,119.279989 859.195545,113.130723 C869.093143,105.622983 879.050975,98.1923194 888.922071,90.6460408 C910.143601,74.4238301 930.808572,57.495887 952.010827,41.2519984 C970.003832,72.8076306 991.172357,102.390584 1012.52399,131.727856 C993.215483,144.048065 973.709408,155.758888 953.362471,166.306335 C938.335373,174.095887 915.345382,184.621657 905.852554,199.398682 C896.501877,213.949294 905.686309,230.737536 922.354173,231.004895 C932.321642,231.163866 942.25779,228.523993 952.030102,227.016183 C959.084671,225.927476 971.965041,220.842831 978.325717,224.426891 C966.893365,231.720262 925.416453,252.976537 947.775195,271.612208 C963.756395,284.934413 990.774814,265.494255 1008.03779,269.495011 C1002.77577,279.592042 997.306555,295.698638 1011.91202,301.190344 C1024.06717,305.761949 1039.97609,297.242578 1050.91453,292.723964 C1058.8196,289.460253 1066.67407,286.085744 1074.44662,282.523361 C1080.6266,279.688388 1088.02811,273.946183 1094.63213,272.722592 C1102.33723,271.294267 1118.0269,292.76732 1110.61574,298.172315 M759.147403,1042.37557 C769.965371,1040.40289 775.518917,1035.93004 778.925734,1049.06196 C781.978377,1060.82577 785.002107,1072.15603 788.934162,1083.70065 C772.03741,1085.16029 757.133188,1093.22684 744.811787,1104.57395 C736.036944,1112.65977 718.586042,1131.95782 722.91323,1145.4968 C733.422803,1178.39886 786.507949,1104.58841 792.81562,1096.7001 C800.537578,1107.98459 803.378198,1122.75921 807.216289,1135.66472 C809.948488,1144.84887 820.087021,1162.45605 806.683823,1164.68887 C787.869231,1167.82492 752.569885,1174.82925 754.80094,1201.47366 C757.436766,1232.92331 797.448795,1232.74507 819.896683,1234.15895 C832.552984,1234.9538 832.610808,1245.09419 834.413,1256.4413 C835.220131,1261.51632 837.737899,1268.37372 833.427577,1272.09026 C829.601533,1275.38769 817.882469,1275.47922 812.902348,1276.54625 C798.383622,1279.66303 783.874533,1282.84003 769.358216,1285.95441 C752.878281,1289.4903 744.163672,1284.53813 728.758306,1280.02433 C723.052972,1278.35273 717.323545,1279.05846 716.904318,1272.67315 C716.646518,1268.75429 720.482199,1262.69655 721.737469,1258.82104 C726.710361,1243.48762 730.943584,1227.70378 732.372327,1211.60201 C734.451594,1188.20686 731.854317,1153.12979 703.043344,1148.56541 C689.336567,1146.39281 686.700742,1145.68467 680.513538,1132.82252 C673.820371,1118.91501 663.19515,1106.03359 665.763514,1090.0113 C667.621121,1078.40164 664.48656,1056.43241 671.897712,1046.80265 C675.323804,1042.35148 682.002515,1039.69475 686.560999,1036.42863 C692.369936,1032.26167 697.96444,1027.80087 703.378243,1023.13532 C707.931909,1019.21405 713.483045,1011.54734 718.646276,1008.71478 C724.953947,1005.25115 725.146695,1007.61162 729.676268,1013.02143 C736.362206,1021.00849 746.992246,1044.59393 759.147403,1042.37557 M789.722019,1094.35167 C785.973074,1101.91722 777.309062,1108.95046 771.791657,1115.26592 C766.240521,1121.61751 760.988144,1128.3304 754.796122,1134.08706 C747.982488,1140.4242 723.780595,1155.72871 729.11248,1135.12759 C733.261376,1119.10289 748.78721,1106.12512 762.453027,1098.12843 C765.09849,1096.57726 796.06583,1081.55214 789.722019,1094.35167 M816.198335,1170.63821 C818.598045,1181.3639 819.889455,1192.41957 821.9374,1203.22234 C822.987875,1208.74536 828.796811,1222.08683 826.428423,1227.39789 C822.41686,1236.40139 786.307974,1225.74315 778.822132,1222.64563 C761.005009,1215.27037 752.825276,1196.33844 769.257023,1182.85485 C775.487595,1177.74612 813.798625,1159.91734 816.198335,1170.63821 M839.870171,1299.45244 C841.881976,1309.69158 847.765602,1319.18405 838.039067,1326.92543 C829.962935,1333.35168 816.730801,1337.73782 806.780197,1340.02603 C793.215572,1343.14282 788.854654,1335.54355 781.674799,1325.76928 C773.95525,1315.25796 765.736967,1305.10312 757.210287,1295.23491 C783.987772,1289.24221 810.762848,1283.24709 837.542742,1277.25439 C837.525876,1284.71396 838.431791,1292.14221 839.870171,1299.45244 M775.709255,1346.97256 C761.744679,1346.24997 746.71999,1350.45305 732.557847,1351.55862 C714.870829,1352.93877 697.234408,1354.94758 679.532934,1356.13504 C684.067325,1341.66632 692.213328,1328.76322 698.586051,1315.09658 C704.978049,1301.38177 709.466663,1299.89804 724.173319,1298.84065 C737.800586,1297.86033 747.411472,1293.1707 757.468088,1304.72978 C767.931882,1316.75132 777.407845,1329.8158 786.960907,1342.55993 C783.710697,1344.73493 779.82683,1347.18693 775.709255,1346.97256 M675.890001,1349.92556 C672.444634,1352.43536 661.819413,1345.30096 658.239123,1343.9184 C651.2737,1341.22795 649.729309,1340.36084 646.093604,1333.56846 C642.97109,1327.7275 638.003016,1321.08928 637.024821,1314.42216 C635.733411,1305.63543 639.622097,1294.06431 641.038793,1285.33298 C644.809422,1294.4232 657.186238,1295.47818 665.549083,1296.96431 C671.873619,1298.09156 690.613521,1296.29712 695.38162,1300.80128 C700.650862,1305.77754 690.95083,1319.65373 688.423425,1324.88049 C685.406922,1331.11887 681.682071,1345.70802 675.890001,1349.92556 M669.13901,1357.13463 C664.992523,1357.80664 653.059027,1361.93023 653.297552,1354.35746 C653.56499,1345.70802 669.984691,1355.03911 669.13901,1357.13463 M648.110228,1356.6818 C647.353692,1363.96554 631.67848,1363.36097 631.319487,1356.95398 C630.709922,1346.12713 649.314901,1345.05046 648.110228,1356.6818 M630.187094,1160.26419 C626.180349,1171.67634 601.771253,1175.75899 592.396483,1179.2732 C583.836072,1182.48151 558.260852,1197.29467 549.433004,1191.92098 C579.313728,1171.3873 609.934121,1151.2655 635.251541,1125.04742 C636.287561,1131.52426 634.709438,1136.93407 632.798826,1143.06407 C631.076143,1148.59672 631.962783,1155.20845 630.187094,1160.26419 M622.756667,1201.88072 C618.455982,1229.83543 614.237215,1258.15867 608.418642,1285.83398 C597.330826,1282.44742 588.187353,1275.58038 576.53816,1273.1886 C565.90812,1271.00637 554.926315,1270.95338 544.209539,1272.5479 C521.368927,1275.94409 501.007534,1287.24062 481.079824,1298.24812 C479.239082,1279.07773 475.427495,1258.56091 475.878043,1239.32308 C476.251492,1223.34173 503.602401,1218.61116 516.00813,1212.00907 C523.513246,1208.01554 530.300377,1202.39858 538.851151,1201.00639 C547.650087,1199.57083 556.140626,1199.61419 564.833551,1196.93337 C585.382873,1190.59382 604.722703,1180.54255 624.855208,1173.05167 C626.500792,1182.64771 624.214322,1192.42439 622.756667,1201.88072 M603.55417,1320.19086 C602.641027,1326.54486 603.792695,1337.88475 598.949907,1342.72853 C594.389013,1347.2905 584.648022,1347.43984 578.634292,1348.67547 C560.313616,1352.445 542.009805,1356.25065 523.715632,1360.1382 C515.531079,1361.87724 507.344117,1363.53921 499.125834,1365.09278 C495.205826,1365.83224 485.37328,1369.59213 482.072475,1366.47294 C478.940323,1363.5103 481.272571,1354.04915 481.441226,1350.07971 C481.778534,1342.15046 482.226673,1334.19712 481.727938,1326.26546 C480.773836,1311.05006 481.621927,1305.22355 495.784069,1297.35211 C510.830443,1288.98689 526.370732,1283.26154 543.306034,1280.16162 C560.453358,1277.02316 576.788732,1278.74052 593.10965,1285.32093 C597.651269,1287.1515 604.462494,1289.4084 606.5779,1294.30517 C609.452252,1300.96748 604.522727,1313.43943 603.55417,1320.19086 M582.927748,1565.44371 C576.212898,1569.65402 561.600207,1568.93624 553.885477,1569.79131 C541.429152,1571.16664 528.893319,1570.38143 516.518911,1568.45933 C507.204375,1567.01414 493.302442,1565.01256 486.163546,1558.4731 C476.020194,1549.18296 487.724803,1548.75663 495.48772,1549.40937 C518.056075,1551.30738 540.908733,1549.98263 563.455404,1548.35198 C567.845235,1548.03404 579.643808,1544.18021 583.877031,1545.98428 C589.288425,1548.28935 587.630794,1562.49553 582.927748,1565.44371 M570.131705,1715.58888 C528.083778,1711.50382 503.706003,1676.6893 488.457245,1641.09919 C480.272692,1621.99142 483.224143,1601.94188 482.417011,1581.73577 C482.270041,1578.04573 479.952249,1568.88566 483.746971,1566.13017 C487.312805,1563.53847 501.737566,1571.54721 505.6383,1572.50344 C525.638291,1577.40503 547.756098,1577.87472 567.799457,1573.11283 C576.482745,1571.05103 581.344807,1567.21647 584.10351,1575.82014 C586.324928,1582.74981 582.679586,1595.51803 582.282043,1602.78008 C581.595379,1615.34116 583.563816,1716.89196 570.131705,1715.58888 M486.134634,1715.62742 C485.973208,1709.52873 482.896471,1647.9036 485.881652,1647.71814 C494.752869,1666.8524 503.86502,1683.96821 520.014874,1698.04432 C528.264479,1705.23894 537.540466,1711.7206 547.857291,1715.58165 C551.73393,1717.03166 573.697539,1718.13241 574.774517,1722.94006 C576.656218,1731.35586 561.66285,1727.95967 557.215195,1727.27562 C553.646952,1726.72404 550.435292,1725.20418 546.934511,1724.5683 C540.265437,1723.35916 533.962585,1724.985 527.2646,1725.11988 C517.087517,1725.32702 507.093545,1724.25999 496.911644,1725.14156 C487.604336,1725.94364 486.382797,1724.8742 486.134634,1715.62742 M492.341112,1439.21636 C528.336759,1427.58262 558.419869,1449.61447 577.417571,1478.45075 C588.249996,1494.89455 590.67139,1506.39342 588.777643,1525.86489 C588.098207,1532.8355 589.351068,1537.55403 582.942204,1540.39382 C576.598393,1543.20712 562.185678,1541.12123 555.321448,1541.44158 C535.581667,1542.36409 515.916575,1543.59009 496.176793,1542.41949 C483.354247,1541.66077 481.542418,1539.48817 481.764078,1527.04271 C482.029106,1512.06095 480.783474,1497.14664 479.935384,1482.14079 C479.017422,1465.90654 473.442193,1445.32227 492.341112,1439.21636 M480.561814,1417.63733 C480.583498,1406.62983 479.923337,1395.3357 480.595545,1384.34507 C481.265343,1373.44837 485.903337,1373.9879 496.191249,1372.12843 C518.470483,1368.10118 540.720804,1363.59461 562.698869,1358.13421 C571.391794,1355.97607 581.214702,1351.8332 590.271439,1351.79928 C599.773904,1351.76335 599.27035,1356.64808 598.636692,1365.06147 C597.227224,1383.69714 593.813179,1402.05823 592.77475,1420.59514 C591.654404,1440.60133 591.066523,1460.86525 591.155669,1480.89311 C591.186991,1487.65417 592.830165,1492.66174 587.067007,1486.33424 C581.294211,1479.9971 578.470456,1469.89766 573.316862,1462.7753 C562.761512,1448.19097 547.074253,1436.45847 529.66431,1431.51834 C520.038968,1428.78694 509.914891,1428.31244 500.10162,1430.28993 C497.123667,1430.88968 482.209807,1438.00722 480.311242,1436.60058 C479.02706,1435.64916 480.559405,1418.08293 480.561814,1417.63733 M612.247094,1799.14952 C626.524886,1809.3718 642.335022,1817.63104 658.340316,1824.80157 C667.346456,1828.83605 702.995157,1837.32652 704.132369,1846.4071 C704.739524,1851.25088 698.831805,1856.67996 694.962393,1857.25322 C690.054553,1857.98063 681.966374,1854.77473 676.966979,1854.16775 C658.786045,1851.96143 640.641251,1851.94698 622.901228,1846.88642 C587.483824,1836.77975 550.762963,1833.93274 514.976929,1825.12192 C506.462296,1823.0264 497.928388,1821.06095 489.370387,1819.16294 C481.24125,1817.35886 477.598317,1817.66717 477.311604,1808.9816 C476.677946,1789.91719 482.147164,1770.38551 482.190533,1751.08505 C511.141249,1754.38971 540.190748,1754.34635 569.220972,1757.06571 C581.660432,1758.22909 581.37131,1760.58715 586.821253,1771.45495 C592.48081,1782.7298 602.106152,1791.88987 612.247094,1799.14952 M471.09067,1179.77901 C470.724449,1172.72169 470.437737,1165.6451 469.79926,1158.60704 C469.370396,1153.87888 465.050437,1140.66265 467.486287,1136.97984 C470.379913,1132.60815 473.295223,1135.27693 478.47291,1135.15409 C485.29859,1134.99271 491.013562,1132.24926 496.641797,1128.65798 C507.300749,1121.86078 515.225092,1112.91268 522.142328,1102.4688 C528.228339,1093.27742 527.095946,1080.72116 527.021256,1069.71607 C526.828508,1041.25795 528.902956,1013.50075 527.165817,984.917386 C526.368323,971.787873 537.576606,979.839966 546.628523,981.540468 C561.433962,984.320042 577.525992,982.395537 592.572365,982.431666 C592.013397,985.931425 561.243624,994.6194 556.27314,997.926467 C543.546968,1006.38803 536.126179,1019.92701 537.287484,1035.3616 C539.622142,1066.41382 573.825235,1071.60445 598.817393,1071.66466 C578.082551,1089.99685 557.718749,1107.47396 541.421924,1130.08871 C529.40651,1146.76374 508.242804,1179.63931 527.886212,1198.08711 C510.522046,1207.94809 493.312079,1218.91706 473.67349,1223.66208 C472.794078,1209.0368 471.852024,1194.41152 471.09067,1179.77901 M463.207286,612.943419 C470.276311,617.483711 473.249445,611.064677 478.629517,607.74075 C486.206914,603.055939 488.715045,603.51599 489.676374,593.055253 C491.454473,573.653634 483.291604,556.092218 473.042241,540.214443 C468.384973,532.998148 463.737342,524.40411 457.162234,518.763068 C451.167778,513.620615 445.10827,515.390968 439.554725,510.075093 C437.374265,507.984391 437.841679,505.033803 434.237295,505.118105 C431.864088,505.173504 426.096111,512.524683 424.134902,514.148108 C417.94288,519.2737 410.367893,523.175702 402.253211,518.948534 C390.437773,512.796859 394.232494,490.468739 403.409698,483.235584 C410.476313,477.666801 418.827111,478.526687 426.871921,477.628263 C432.904926,476.956251 434.160196,477.218793 431.678569,470.315622 C429.93902,465.481476 425.929866,461.709541 423.949383,456.981375 C420.142614,447.903199 420.97143,436.869206 419.328255,427.261129 C417.851325,418.652638 414.39873,409.340824 414.524016,400.59745 C414.687852,389.464702 418.325966,386.571922 427.972993,383.450321 C437.31885,380.427474 445.057674,373.762758 453.018157,368.162663 C462.029115,361.823115 471.897801,357.636893 481.156923,351.848924 C487.442909,347.918019 491.50025,339.971906 498.412667,343.683624 C506.626132,348.09385 515.311829,360.862066 522.296526,367.38708 C512.076075,373.873556 509.700459,376.710937 511.107518,389.409303 C512.401337,401.050275 514.772135,411.424301 523.672263,419.534202 C527.091127,422.650986 533.468669,425.14634 536.118951,428.740035 C539.210143,432.926257 537.200748,429.236216 536.810434,433.961973 C536.60323,436.510318 534.586606,438.177099 535.025107,441.122869 C536.986316,454.206618 552.018233,446.484508 558.212665,441.939399 C580.344928,425.700328 539.019805,412.804453 529.204124,406.888826 C522.426631,402.801359 519.075229,389.756148 529.813689,393.222185 C536.957404,395.527257 553.095211,415.070986 554.733567,397.256662 C572.447088,407.543977 583.378296,429.402412 598.231922,443.223206 C608.94147,453.190171 623.330092,464.245842 614.827505,480.164564 C603.99508,500.454973 582.510931,509.665623 562.898845,518.421041 C543.87464,526.911507 547.825969,550.94013 557.993414,565.647304 C563.872221,574.149814 571.574904,579.130888 580.841254,583.261711 C590.307579,587.484062 592.273606,592.443458 594.340826,602.237001 C596.636934,613.099981 594.198675,617.478894 584.790174,623.091032 C575.605742,628.573103 566.002084,633.881753 556.196041,638.171546 C534.991376,647.449639 512.994037,648.034939 490.440137,651.197487 C482.535069,652.305463 474.955263,654.612943 470.642531,646.777627 C465.792516,637.959585 465.435932,622.773091 463.207286,612.943419 M459.79806,570.743993 C454.490268,567.947559 441.677359,577.237695 434.967327,577.644755 C424.113218,578.302315 416.986369,578.054225 407.35139,583.810881 C389.136725,594.693131 374.02289,608.704207 359.417427,623.897927 C342.966405,641.011336 326.609346,658.213864 310.213739,675.377854 C302.783312,683.152954 295.314336,690.887107 287.765851,698.544183 C281.817173,704.580242 276.001009,713.0683 268.638043,717.374954 C269.02113,712.258996 272.1581,708.638806 273.271218,703.896188 C273.919333,701.12384 272.786939,698.770595 273.206166,696.116271 C273.343499,695.253977 275.658881,692.257625 276.010646,691.274898 C276.950291,688.68079 278.09955,686.117994 279.215078,683.425131 C280.255916,680.910507 280.104127,678.304356 281.159421,675.678935 C282.246036,672.97162 285.219171,671.17959 286.250372,668.513222 C289.274102,660.709218 284.269888,657.091437 276.266037,657.274494 C279.398188,641.659261 280.766697,634.021454 297.094843,628.515296 C312.695366,623.25482 327.934487,617.348827 342.265285,609.128128 C354.989047,601.82994 365.604631,591.311396 377.836887,583.177408 C388.78737,575.893672 402.419456,568.263091 402.306217,553.327095 C408.515105,557.537403 414.333678,561.080517 421.436434,556.889478 C427.430889,553.348773 428.225974,550.499349 435.155257,549.832154 C440.812404,549.29021 444.318004,549.145691 449.365586,551.633819 C455.307037,554.557912 456.118987,556.593215 459.578809,547.979908 C463.510864,551.289383 473.45183,565.074047 473.11934,570.529624 C472.938639,573.53561 472.483273,574.891676 468.758422,575.68412 C463.474724,576.806548 463.679518,572.788931 459.79806,570.743993 M435.046836,1386.53693 C432.464016,1390.49433 421.576176,1389.76451 417.371865,1389.71152 C404.554138,1389.54533 400.072752,1378.78833 394.449336,1368.39503 C385.582938,1352.00903 372.331528,1317.97009 386.876757,1300.77238 C398.357297,1287.19968 420.718448,1304.30104 428.551236,1314.55223 C435.314273,1323.40881 433.304878,1336.69247 433.933718,1347.31941 C434.463774,1356.27715 440.149833,1378.7257 435.046836,1386.53693 M400.029384,1392.47183 C394.904702,1397.59501 378.272978,1396.51112 371.483438,1397.61187 C359.364422,1399.57251 347.312867,1401.93057 335.555253,1405.50981 C326.802094,1408.17377 318.150128,1415.34189 315.841974,1403.14212 C313.904859,1392.88611 314.868598,1380.58277 315.054117,1370.23042 C315.254093,1359.06154 316.422627,1348.03477 317.393593,1336.91648 C318.051345,1329.39669 316.405761,1315.56386 322.544778,1309.79275 C327.835704,1304.8189 340.699209,1304.33958 347.568258,1302.69207 C358.846412,1299.98716 370.630529,1296.43441 382.354413,1297.64596 C375.514276,1316.20937 374.933623,1335.67603 382.267676,1354.1744 C384.35899,1359.45415 403.195266,1389.30687 400.029384,1392.47183 M313.837397,1318.51926 C310.979911,1346.44266 308.10556,1374.54189 310.857034,1402.60499 C311.023279,1404.279 313.023038,1411.94571 312.153263,1413.14521 C311.254577,1414.38807 304.137365,1415.03118 302.520693,1415.41174 C296.102192,1416.93401 289.693329,1418.5478 283.233869,1419.89905 C270.661895,1422.52688 269.02113,1414.58558 266.553958,1402.93497 C261.27026,1377.97421 271.514804,1350.91069 277.721282,1326.93747 C280.745013,1315.26278 282.985706,1313.91875 294.466245,1312.95048 C302.455641,1312.27847 315.051708,1306.65429 313.837397,1318.51926 M265.289051,1422.69548 C260.484813,1427.06476 255.682984,1406.44918 255.258938,1404.34885 C253.579623,1396.00531 254.51445,1387.54374 254.538544,1379.07014 C254.579503,1365.83464 253.567577,1352.65937 253.548302,1339.4865 C253.536255,1332.36173 248.197142,1317.79426 256.629857,1314.02473 C259.104257,1312.91917 268.934393,1313.37922 271.165449,1314.83404 C275.798623,1317.85929 273.972338,1319.81993 272.59901,1325.08281 C269.524683,1336.8948 266.867173,1348.76459 264.190389,1360.67533 C261.5642,1372.35243 258.974152,1383.58875 260.224603,1395.64883 C260.636601,1399.63754 268.351331,1419.91109 265.289051,1422.69548 M418.509077,1292.59022 C430.220913,1289.29038 430.847344,1298.26257 430.828069,1306.84939 C429.042743,1305.48128 412.398972,1294.3124 418.509077,1292.59022 M261.848503,662.284471 C258.978971,667.012637 240.802855,668.30367 235.608303,669.548938 C225.390261,671.99612 215.167401,674.42644 204.975862,676.974785 C185.881786,681.748715 167.257532,687.134441 147.683995,689.632204 C158.432093,672.424858 161.776267,657.565939 159.776509,636.092887 C157.253922,608.981201 154.047081,582.1441 147.804463,555.605672 C141.65099,529.435765 134.52655,503.44169 127.664729,477.447614 C124.294053,464.676989 120.64871,452.149637 116.164915,439.723447 C112.570169,429.763709 106.95639,417.226722 113.056857,407.016484 C128.539323,418.310611 140.957098,430.479076 149.787355,447.63584 C159.248862,466.028238 167.508104,484.90959 178.487499,502.504728 C183.508579,510.549595 189.370521,517.886322 194.740956,525.673465 C197.93575,530.307694 200.263179,536.991678 204.332567,540.900906 C209.023566,545.405069 214.025371,547.529492 216.706974,539.927814 C219.583735,531.76974 210.406531,515.627015 207.698425,507.965121 C201.157047,489.469152 194.671084,471.01172 189.625911,452.038839 C185.544477,436.703009 178.798305,418.161275 181.185968,401.980011 C183.549538,385.960127 194.420512,397.425267 199.921052,404.872792 C211.261849,420.227891 218.05139,438.126517 225.501091,455.53378 C232.348456,471.52717 240.335442,486.77388 247.912839,502.396339 C250.548665,507.832646 254.022943,521.875035 260.928132,523.491234 C270.965473,525.844479 270.114973,511.710561 269.156053,505.975582 C262.795377,467.95997 246.190156,431.558148 242.744789,392.882567 C242.578544,391.035138 240.178834,376.665173 242.108721,375.465669 C245.850438,373.13892 250.89802,387.716027 252.512283,391.288045 C260.908858,409.865909 266.756343,429.450585 272.12196,449.076208 C276.685263,465.765696 280.812475,482.582841 285.934747,499.113358 C288.748865,508.201168 291.97498,517.137234 295.155319,526.099795 C298.032079,534.21933 300.952208,548.095523 308.454915,553.445119 C319.099411,561.034753 357.19119,542.9892 361.050965,559.122291 C363.797621,570.58984 328.476591,579.824577 320.954609,583.307475 C311.052192,587.891123 301.337704,592.910735 291.430468,597.4992 C283.93017,600.970054 273.150751,602.393562 267.724901,608.925802 C261.976198,615.845834 261.055828,625.5623 260.884764,634.146703 C260.75225,640.642813 265.25532,656.67715 261.848503,662.284471 M237.776715,787.502596 C237.273162,791.105926 234.408448,795.877447 233.119447,799.307355 C230.495668,806.294828 228.264612,814.643185 224.614451,821.170608 C221.475072,826.79238 216.841897,831.819218 213.808529,837.525294 C210.931769,842.939923 210.548683,849.183126 207.187643,854.604981 C203.342325,860.800011 196.986467,865.256001 193.167652,871.412492 C191.285952,874.449791 189.341608,877.918237 186.681689,881.153045 C177.263551,892.61096 167.912874,903.420949 160.337887,915.695394 C158.400772,918.838673 148.939265,932.555895 145.173456,933.297757 C137.302118,934.844106 146.464866,923.655959 148.004439,921.341254 C159.157307,904.606002 169.062133,886.986778 179.827096,869.991393 C190.254751,853.535544 200.92575,837.207353 210.960681,820.503414 C219.145233,806.884946 224.80479,787.333991 238.106796,777.740365 C238.157392,781.001668 238.048971,784.255745 237.776715,787.502596 M601.445991,633.693878 C607.924726,660.323836 615.673186,686.130037 622.975918,712.521538 C629.753411,737.010212 638.771598,763.216248 641.580897,788.461235 C644.363693,813.470176 650.7581,838.772971 659.35706,862.510148 C663.332483,873.49356 667.421145,884.517919 671.736286,895.373673 C674.107084,901.337473 676.757366,907.166389 679.448607,912.990488 C681.537511,917.516328 687.057325,924.84342 687.269348,929.639029 C687.438002,933.478406 688.77278,931.9441 684.982877,934.829654 C681.05805,937.81878 674.258873,936.732482 669.688341,937.259975 C657.766891,938.637719 646.141791,943.122612 634.5191,946.027436 C612.104943,951.627531 585.387692,956.073886 562.419385,952.176701 C552.757903,950.536416 542.722972,949.115316 533.16991,946.97885 C521.414705,944.348612 518.99813,939.485561 516.586373,927.933709 C511.309903,902.679087 506.765874,877.489499 502.409774,852.066272 C497.229678,821.825759 491.623127,791.618966 487.62602,761.190579 C483.587954,730.408121 480.6871,699.594351 474.360154,669.146695 C499.882369,673.41481 523.918017,678.234505 549.514921,671.242214 C572.18206,665.049593 588.546346,652.946162 601.445991,633.693878 M701.354391,963.386526 C707.059725,975.145521 693.307172,985.717055 686.642917,994.773553 C677.853619,1006.71079 669.644973,1019.18274 659.422113,1029.98069 C656.355014,1017.71106 653.663773,1003.90472 645.48163,993.826956 C635.029882,980.957577 622.831357,986.215645 610.028086,980.129004 C623.455378,973.596764 640.600292,976.089709 654.844353,970.26561 C668.895666,964.520997 683.081902,960.012017 696.15502,952.550041 C697.892159,956.160597 699.607615,959.780787 701.354391,963.386526 M651.558003,1237.72615 C642.975909,1238.20306 648.717383,1220.10692 649.273942,1215.60999 C650.806287,1203.24883 652.355497,1190.89009 653.697504,1178.50725 C660.778575,1197.17664 667.857237,1215.84604 674.93349,1234.51302 C667.153708,1235.6234 659.424522,1237.29018 651.558003,1237.72615 M637.598246,1327.22169 C638.769188,1329.82302 644.228769,1338.49414 639.918447,1340.09348 C634.010728,1342.28293 633.29997,1327.9226 637.598246,1327.22169 M627.35852,1126.1 C600.019657,1147.92471 572.871133,1169.80482 543.291578,1188.59465 C536.810434,1192.71102 530.283512,1194.4332 525.987646,1186.27031 C522.612151,1179.85127 526.177984,1172.62053 528.343988,1166.33638 C533.866211,1150.31649 543.486735,1136.38972 554.148096,1123.35173 C575.441907,1097.3143 600.78583,1075.0753 633.124088,1064.80967 C638.415014,1063.12843 646.582701,1058.06065 648.435489,1065.06017 C649.526924,1069.17654 644.908205,1079.45662 643.970969,1083.32009 C640.108785,1099.27494 640.952057,1115.25388 627.35852,1126.1 M706.055028,1285.26554 C706.657364,1303.79764 655.991202,1288.8496 649.678713,1285.53771 C656.302008,1283.31694 705.782771,1276.93404 706.055028,1285.26554 M724.86962,1285.38115 C727.878895,1286.18323 739.424486,1287.20208 735.111755,1291.14744 C731.251981,1294.67851 713.772167,1293.26223 709.138992,1293.69579 C712.251869,1283.4711 714.615438,1282.65216 724.86962,1285.38115 M715.482803,1260.55768 C714.35041,1264.68127 713.890225,1270.97024 710.194286,1273.79558 C705.590024,1277.31701 695.805665,1275.17814 690.594247,1275.20704 C681.742305,1275.25281 672.900001,1275.70563 664.091427,1276.58479 C660.720751,1276.91959 647.06939,1281.03355 643.910735,1278.22748 C641.590534,1276.16568 642.45549,1266.49498 644.144442,1264.32238 C647.613902,1259.85435 655.603297,1261.4007 660.609921,1261.22246 C678.930597,1260.56731 697.15249,1260.51432 715.482803,1260.55768 M703.72037,1192.05828 C701.135141,1188.21649 700.672546,1188.25744 699.569065,1182.45261 C698.390894,1176.24072 695.391257,1170.92725 693.627615,1164.92491 C689.748566,1151.71591 702.144657,1152.88892 711.237533,1157.73271 C734.825043,1170.2986 729.131755,1214.20334 723.298726,1234.7587 C714.817823,1228.52513 711.688081,1225.69739 708.770362,1215.63889 C707.662062,1211.81638 706.418839,1208.0613 705.264762,1204.26046 C704.416672,1201.46162 705.006962,1193.97315 703.72037,1192.05828 M705.763497,978.368286 C712.348243,977.573433 718.37402,998.003543 716.49232,1002.42581 C712.642183,1011.47027 697.9283,1019.54886 690.43523,1025.32237 C685.445472,1029.16416 680.489445,1033.57197 675.157559,1036.9224 C670.206351,1040.03196 667.358502,1038.2881 662.75424,1039.78146 C656.092395,1041.93719 654.478132,1048.98488 647.65968,1052.01495 C638.065659,1056.27825 626.438149,1057.47053 616.417674,1061.31954 C604.260108,1065.9899 593.116878,1066.11756 580.369022,1063.90402 C562.036299,1060.7222 540.547331,1051.62716 542.200143,1029.35444 C545.113044,990.055022 623.168665,969.918766 644.455248,1003.23993 C649.996746,1011.91346 649.91001,1022.02253 653.507165,1031.33916 C657.40308,1041.42174 661.180936,1037.45952 667.040468,1030.03368 C674.707011,1020.31721 681.829042,1010.08048 689.194416,1000.13278 C691.57726,996.917245 701.009855,978.94636 705.763497,978.368286 M227.409294,1360.99809 C227.035845,1367.68207 227.435797,1374.46 225.110777,1380.83808 C222.768892,1387.26916 218.020068,1392.46942 215.285459,1398.71985 C209.741551,1411.3869 209.78251,1426.7131 210.00417,1440.2858 C210.51977,1471.86552 217.998384,1502.53718 221.954532,1533.73874 C208.78745,1533.70743 195.177047,1533.85676 182.414735,1530.09206 C171.016114,1526.72959 169.197057,1518.4005 165.97335,1507.90364 C156.921433,1478.42185 147.144302,1449.06771 144.221763,1418.19373 C142.83157,1403.48174 142.246099,1388.64931 141.581119,1373.88915 C141.000466,1360.94028 143.908548,1355.29201 155.598701,1348.88262 C181.007676,1334.94621 207.34666,1323.34377 232.495426,1308.74499 C229.924653,1326.06554 228.387489,1343.52098 227.409294,1360.99809 M1312.13354,326.310082 C1305.94634,325.175611 1299.70131,324.465062 1293.45869,323.720791 C1290.20126,323.330591 1280.05068,323.872536 1277.61242,321.750521 C1274.71156,319.223855 1279.73505,300.120907 1279.99285,296.021396 C1281.56375,271.368935 1279.73746,245.955343 1277.47508,221.396818 C1273.38401,176.938086 1259.40016,135.75029 1227.13659,103.737016 C1211.07829,87.8014334 1193.02506,75.1584662 1171.09277,69.0573734 C1158.316,65.5022163 1145.14892,63.6066143 1132.34324,60.1598461 C1122.01437,57.3754548 1112.37457,54.1888201 1101.64334,53.0856616 C1080.2411,50.8841619 1060.6748,42.7983473 1039.78816,38.1207625 C1024.42135,34.6788116 999.706264,26.5159205 989.743614,43.8653761 C981.901189,34.6691771 974.012986,27.7635975 964.122616,20.9037822 C954.649062,14.3330041 953.099852,7.76945184 941.498845,15.3566774 C918.959402,30.0999813 897.848702,48.0853187 876.795826,64.8591087 C857.133144,80.5249228 838.108938,96.9301904 817.501792,111.336284 C796.485056,126.031415 800.470116,150.968097 810.353259,171.64148 C828.9486,210.553108 857.629469,243.818876 882.734867,277.173765 C898.460676,298.068743 914.237082,318.990216 929.900248,339.926141 C944.874341,359.937148 957.824582,383.09625 975.321261,401.074362 C986.353662,412.407027 999.520745,397.586647 1009.47617,390.738874 C1021.83371,382.233956 1033.97441,373.413505 1046.34641,364.932673 C1072.10956,347.267685 1099.67731,330.722716 1126.87643,315.345939 C1128.8545,320.95326 1130.83258,326.560581 1132.81065,332.167902 C1126.83788,332.61591 1118.76657,331.281522 1115.72838,337.702964 C1111.38433,346.875076 1122.04087,348.079398 1123.90811,353.337466 C1125.57779,358.03432 1118.73524,370.438831 1116.71139,374.670817 C1112.16014,384.206635 1105.80428,392.427333 1098.80271,400.277101 C1071.10486,431.34137 1036.05127,453.561102 1000.48689,474.7403 C962.428845,497.400813 921.638596,511.236059 879.973755,525.839661 C858.785956,533.263099 836.795844,536.712276 814.933428,541.466937 C793.866096,546.048176 772.818039,552.064966 751.290521,553.794372 C707.247655,557.327851 660.511138,559.977359 617.000736,550.480079 C612.237457,549.441954 607.197103,547.189873 602.351905,546.761135 C598.468038,546.416699 595.591277,548.044941 591.924251,548.254493 C584.050504,548.704909 579.537797,541.664446 573.283132,548.20632 C570.15339,551.477258 570.097975,556.971372 565.737056,550.865462 C560.188329,543.097589 574.369747,541.594595 579.624533,539.381052 C597.318779,531.928711 611.541156,516.927682 622.78317,501.762866 C634.017956,486.610092 635.632218,470.42642 628.792082,452.684356 C621.954354,434.949517 606.402018,422.92798 594.726322,408.526703 C589.078812,401.553682 583.88185,394.176008 577.68019,387.665446 C574.369747,384.187365 569.035452,380.858621 568.828249,377.351637 C568.587314,373.276213 571.027983,371.250544 569.567918,366.295965 C569.189651,365.007341 567.570569,364.275114 567.226033,362.858831 C566.68152,360.601933 567.524792,358.665384 567.240489,356.466293 C566.585146,351.422594 564.607072,348.255229 561.807411,344.121997 C560.063043,341.539932 557.511545,336.370984 555.111835,334.436844 C550.905115,331.045475 545.168459,332.428036 540.891868,328.990902 C534.124011,323.554595 531.743576,312.099089 525.756349,305.499407 C517.328452,296.211679 515.531079,305.595752 506.602038,302.63553 C498.966817,300.101638 499.055963,288.614819 492.885625,284.729678 C484.195109,279.257241 476.875513,289.325369 469.158374,291.567815 C459.005384,294.518403 462.906118,283.065306 453.85661,282.022363 C445.684104,281.078175 434.364991,297.654456 430.288375,303.54118 C426.13707,298.702216 421.59545,290.457431 414.124065,293.410427 C406.28164,296.51276 404.886628,310.945349 399.154791,316.095027 C397.157442,317.884649 397.579078,319.206994 395.121543,320.03075 C391.948433,321.092962 387.720029,316.487636 383.616911,317.891875 C375.340803,320.724439 376.350319,331.768067 376.333454,338.921737 C366.56837,337.495821 359.757145,336.76841 356.487661,347.291772 C353.288048,357.591129 352.073737,353.04602 341.778596,356.391625 C332.902561,359.274771 331.661748,367.702613 330.196864,375.944989 C329.29095,381.070581 330.129403,383.163692 331.507549,387.83646 C333.247098,393.723183 333.247098,393.648515 330.411296,399.267879 C325.469725,409.071056 325.173376,419.871412 324.38311,430.659724 C323.544657,442.173037 321.530443,452.653043 324.802336,463.896589 C326.826188,470.855158 326.980386,480.323534 333.796429,484.220719 C336.499717,485.764659 341.091932,484.919225 343.392859,486.451122 C347.785099,489.375215 346.447911,493.826387 349.372859,498.096911 C351.565365,501.29318 355.099877,501.601487 357.555002,504.193187 C360.224559,507.013707 360.383576,510.450841 361.903874,513.892792 C366.404534,524.086169 370.637757,529.016661 355.967242,529.599553 C346.917734,529.958441 337.26348,532.672982 328.250112,531.839591 C317.612844,530.859273 314.967381,524.914742 311.582248,515.863062 C294.519251,470.24818 285.349276,420.805965 262.877294,377.428713 C257.942951,367.904939 237.689979,328.995719 229.129568,357.345448 C221.911164,381.256047 231.382308,410.436757 235.013194,434.236559 C223.619391,423.968513 219.405443,405.474952 210.753477,392.937965 C204.363888,383.676733 184.35426,360.931917 172.625558,373.965084 C163.380892,384.237947 165.691456,406.019306 167.397274,418.300976 C170.093334,437.729091 176.302221,456.453882 180.73783,475.508657 C175.152963,468.205651 172.399079,459.286446 168.524849,451.063339 C163.665195,440.751938 157.600868,430.965621 150.690861,421.904306 C144.653037,413.984688 137.902046,406.623875 130.582449,399.872449 C124.987945,394.708318 114.96747,383.406965 107.021443,382.79517 C86.573313,381.227143 93.0038607,418.732124 96.1191466,429.455402 C102.573788,451.679951 109.572941,473.290297 114.584384,495.962853 C124.380789,540.257798 136.246824,583.52907 143.462819,628.387638 C145.060216,638.335333 146.985285,646.274221 143.050821,655.834125 C139.58377,664.25715 135.986615,674.330095 129.589798,680.806936 C115.109621,695.473163 103.086979,711.13416 92.2641911,728.806374 C80.6704123,747.733491 68.7369157,766.879794 59.2729999,786.972694 C54.9217188,796.217066 51.363113,806.215343 46.3613082,815.108053 C41.8461916,823.133652 36.4179323,829.475609 33.2086818,838.361093 C17.8731869,880.818243 6.51793356,922.533532 1.31856231,967.490854 C-2.95080093,1004.4009 1.0270313,1053.49868 45.5975451,1062.13607 C66.0721777,1066.10311 84.4554968,1057.02493 102.918324,1049.53164 C122.01481,1041.78304 135.822779,1029.18584 151.399209,1015.7986 C170.753495,999.164509 190.84745,983.556503 210.406531,967.199408 C229.975249,950.832679 248.050172,932.683553 267.512878,916.140993 C286.73706,899.79835 304.127728,882.441669 320.752223,863.46397 C337.244205,844.638017 350.640175,823.781577 366.606919,804.693081 C366.546686,829.408167 362.87725,853.89684 361.848459,878.578205 C360.906404,901.207407 360.88472,923.81493 361.797862,946.432088 C362.711005,969.037203 356.738233,990.553611 356.690046,1013.11055 C356.63945,1035.11351 355.767266,1056.9888 355.285397,1078.96767 C355.068556,1088.82865 353.136259,1099.88914 356.820151,1109.40087 C359.571626,1116.50396 368.218773,1118.72473 375.596194,1120.6396 C386.997225,1123.59742 421.299101,1117.90098 426.390051,1130.07907 C429.170438,1136.72452 426.370777,1148.82313 426.587618,1156.16709 C426.94902,1168.26811 427.39234,1180.36672 427.806748,1192.46534 C428.235611,1204.96138 428.652428,1217.45742 429.107795,1229.95105 C429.512565,1240.95855 431.654475,1253.22336 430.326925,1264.12247 C429.192122,1273.46318 423.744588,1272.242 415.111897,1272.72132 C402.082148,1273.44151 389.047579,1274.01958 376.010601,1274.58802 C356.887613,1275.42623 336.93099,1275.04325 318.598267,1277.30015 C310.897993,1278.24675 302.484553,1277.84451 294.362644,1279.38845 C284.175924,1281.325 274.767423,1281.81636 264.436142,1282.3294 C256.107029,1282.74128 245.39989,1282.13671 238.856103,1288.2932 C236.586498,1290.42967 236.078125,1292.9756 234.468682,1295.35293 C231.454588,1299.80651 233.131494,1298.63591 228.185104,1299.63791 C208.866958,1303.54954 190.519779,1307.96459 171.628088,1314.54741 C162.1714,1317.84243 153.396558,1322.26711 143.896502,1325.36703 C135.569798,1328.08398 129.466921,1331.42959 125.351756,1339.60211 C117.998429,1354.19849 119.860854,1375.31506 120.39332,1391.04591 C121.231772,1415.58757 126.684125,1438.95141 132.565342,1462.68618 C138.682674,1487.37718 143.479684,1512.73056 155.37945,1535.41516 C159.289821,1542.86991 163.510997,1552.37923 171.497983,1556.26437 C181.809989,1561.27917 197.668312,1558.23946 208.922373,1558.25873 C216.475677,1558.27077 236.706965,1560.86488 242.352066,1554.53256 C247.818874,1548.40015 242.318335,1531.10609 241.547344,1523.49719 C238.841647,1496.8287 233.972356,1469.91452 234.037408,1443.06537 C240.198109,1452.16764 250.881155,1467.87921 261.571428,1453.93317 C264.202435,1450.50086 263.176053,1448.90633 267.847778,1446.91679 C270.433007,1445.81604 275.880541,1445.14162 278.694659,1445.33191 C282.523111,1445.58963 283.939808,1447.12876 287.457454,1446.37485 C290.570331,1445.70766 294.071113,1442.92086 297.641765,1442.07301 C341.894245,1431.55688 385.891334,1420.2218 430.334153,1410.85218 C442.084539,1408.37369 440.414861,1417.39406 441.190671,1427.5513 C442.048399,1438.78522 440.412452,1450.13233 441.9713,1461.24099 C443.327762,1470.90688 444.383056,1480.32708 442.472444,1490.05077 C440.219704,1501.51832 441.670131,1511.08786 443.913234,1522.44461 C452.557971,1566.24097 451.01358,1613.74182 452.962742,1658.25354 C453.977077,1681.43673 451.799027,1705.10647 453.979486,1728.16441 C454.803483,1736.87406 459.665546,1741.68653 461.636392,1749.60855 C463.898769,1758.706 457.72843,1770.28916 455.851549,1779.10239 C452.080921,1796.79146 445.455216,1822.11112 457.574232,1837.50235 C464.118019,1845.81698 472.697705,1847.0213 482.38569,1849.83219 C493.979468,1853.19706 505.407002,1857.11834 517.056196,1860.30497 C559.617314,1871.95317 605.609343,1874.23174 649.230574,1880.65078 C659.91121,1882.22121 669.818446,1882.07429 680.568953,1881.33001 C687.194658,1880.86996 703.515576,1883.04979 709.025753,1879.08516 C711.977203,1876.96314 710.480998,1874.30641 711.982022,1871.7123 C714.111885,1868.02708 716.694705,1866.5289 720.323182,1864.23588 C726.332094,1860.43985 733.280651,1858.22149 734.294986,1850.38377 C736.774204,1831.18448 712.779516,1821.01278 699.949742,1812.71259 C683.554134,1802.10011 663.7493,1798.00301 646.348995,1789.34153 C636.747746,1784.56278 627.486215,1779.14815 618.236732,1773.7263 C614.225168,1771.37546 606.093622,1768.71391 603.298779,1765.01183 C600.446112,1761.23507 603.238545,1755.84453 604.419125,1750.44676 C609.295644,1728.14514 607.647651,1705.3401 610.170237,1682.80243 C612.692824,1660.22863 612.00616,1637.51513 612.837384,1614.82571 C613.695112,1591.45946 615.624999,1568.15102 617.106748,1544.8185 C618.470438,1523.26837 619.846176,1501.3714 620.075063,1479.79959 C620.289495,1459.79581 623.016876,1440.17019 623.662581,1420.03634 C623.881832,1413.20302 622.655474,1400.80814 627.192275,1395.02017 C631.172517,1389.94275 644.349237,1390.58104 650.495481,1389.68985 C667.062153,1387.28602 682.828921,1385.17846 699.207663,1383.72845 C738.181263,1380.27928 781.551922,1377.74057 818.405297,1364.15823 C833.603459,1358.55813 853.827519,1350.90588 858.870283,1333.45526 C864.669582,1313.39608 857.099413,1288.74121 856.848841,1268.23161 C856.581403,1246.33464 850.232773,1224.96998 845.471903,1203.75224 C840.344813,1180.91108 837.116287,1157.67731 831.577198,1134.92286 C826.493476,1114.04233 818.248689,1095.55118 810.454451,1075.72805 C807.290978,1067.68799 789.281108,1039.98378 794.868384,1033.15046 C797.877659,1029.47006 808.717312,1028.53791 813.114371,1026.85427 C822.592742,1023.22926 832.08798,1019.10566 840.829091,1013.94153 C852.49756,1007.04559 878.048687,995.638256 879.226858,980.316878 C880.347204,965.672328 865.956173,950.873626 858.641395,939.374764 C846.854869,920.842664 831.989196,904.642131 820.764048,885.743918 C798.077635,847.552475 780.036443,805.721571 763.496274,764.565088 C754.844308,743.03182 752.018144,722.755863 750.59422,699.772591 C775.718893,699.832807 801.291704,702.923096 826.257359,699.411294 C853.427568,695.586369 880.633916,689.148067 907.565599,683.841826 C956.610271,674.175942 1003.70096,663.26238 1049.13402,641.497882 C1091.68068,621.118353 1134.85137,598.81191 1170.07843,566.461426 C1188.2931,549.7334 1206.87398,532.685025 1222.6022,513.555582 C1238.76169,493.905872 1250.91685,471.58016 1263.38281,449.519399 C1277.14259,425.170426 1288.09549,399.581003 1296.75468,372.946228 C1298.49664,367.591815 1298.50628,360.772947 1300.73492,355.714796 C1303.25028,350.003904 1307.82563,349.854568 1312.60337,346.846173 C1319.32304,342.614187 1323.79719,328.451366 1312.13354,326.310082" id="ink-shape"></path>
                <path d="M727.18726,53.7369318 C732.931012,58.6704042 757.685013,76.0486279 765.680688,71.8230759 C775.546023,66.6064353 759.927135,50.8930449 755.722238,47.0190119 C750.370551,42.0904217 731.247583,27.1801547 723.92577,28.564261 C709.291945,31.3324736 722.019354,49.2965625 727.18726,53.7369318" id="ink-shape"></path>
                <path d="M739.413935,232.094073 C742.659519,225.708148 751.291187,223.360487 755.281502,217.180792 C760.083814,209.751729 762.289178,203.250699 760.518641,194.140625 C748.228182,198.277208 734.246465,210.797265 726.023197,220.588377 C719.150054,228.770418 709.386875,245.868294 727.322872,245.911458 C727.166719,243.477469 727.010566,241.041082 726.85201,238.60949 C732.230887,239.391245 736.970738,236.906897 739.413935,232.094073" id="ink-shape"></path>
                <path d="M680.86572,125.848941 C688.788684,128.126038 695.327501,127.803637 703.423179,127.981747 C709.297897,128.112511 717.325463,131.341028 722.086052,127.702182 C717.860634,125.255994 723.200181,125.120721 722.154165,122.735405 C721.275998,120.746891 719.607237,121.398456 718.252281,119.788707 C713.416282,114.053128 709.210324,114.123019 701.542783,112.930361 C695.599952,112.001486 686.862068,109.859662 681.152767,112.813124 C675.144256,115.922151 672.818694,123.535771 680.86572,125.848941" id="ink-shape"></path>
                <path d="M793.649668,301.770766 C798.774372,297.473327 804.360106,285.031376 805.396208,278.612476 C805.801429,276.097537 803.988856,274.170445 804.204812,272.319204 C804.619738,268.792128 811.87003,261.972639 804.275179,259.078446 C797.631505,256.544545 791.388198,276.227907 789.699375,280.522975 C787.966876,284.915229 783.249818,293.472181 784.698421,297.722214 C785.899523,301.24692 790.189522,304.669701 793.649668,301.770766" id="ink-shape"></path>
                <path d="M854.950505,35.3657102 C859.587168,31.0631623 862.520662,26.1836254 862.040764,20.2670004 C861.659669,15.6063214 858.168645,-0.462326989 854.240068,0.010207168 C841.195779,1.58449202 847.060416,42.6924767 854.950505,35.3657102" id="ink-shape"></path>
                <path d="M579.555051,753.775164 C578.48194,749.846098 574.579067,725.823349 567.832091,727.460059 C562.705536,728.703862 568.030461,749.843687 568.269461,752.62537 C568.768972,758.444246 557.581372,758.253819 552.383118,757.468005 C544.13761,756.221792 544.799641,751.391209 543.5664,743.897057 C543.10274,741.064754 541.317408,728.265156 535.409323,732.953521 C531.418019,736.120879 534.271682,751.904639 534.603892,755.505882 C535.755873,767.977656 537.108614,789.276573 544.524791,800.603373 C547.481223,805.120595 550.141296,807.35028 553.248298,801.55792 C556.391151,795.695656 549.276115,777.826838 548.030924,771.829588 C553.900769,772.40328 570.795693,770.499008 574.330507,776.595088 C577.559399,782.158454 572.394605,798.055506 582.752874,799.345108 C588.897569,800.111637 587.783828,792.993518 587.193498,787.52175 C585.953087,776.04068 582.583184,764.865739 579.555051,753.775164" id="ink-shape"></path>
                <path d="M595.292783,748.218152 C588.489331,751.290432 597.031631,796.09286 606.984786,794.648098 C618.602025,792.958838 601.775478,745.289114 595.292783,748.218152" id="ink-shape"></path>
                <path d="M587.710592,733.381795 C586.872284,743.469467 599.98242,747.230408 600.603018,736.267713 C601.080979,727.809151 588.593944,722.777172 587.710592,733.381795" id="ink-shape"></path>
                <path d="M515.74551,465.926638 C521.73166,488.229663 576.21049,497.71607 568.871373,467.638648 C565.194515,452.577657 549.844664,465.957126 539.125562,464.205248 C532.190389,463.072508 511.530872,450.199606 515.74551,465.926638" id="ink-shape"></path>
                <path d="M502.063511,426.144577 C504.625137,414.209593 478.516537,401.037973 469.043041,404.323688 C455.183625,409.131234 455.243087,439.869808 465.815441,448.042156 C467.206853,449.118222 471.471472,451.682566 473.559779,449.638281 C476.856356,446.40529 473.255334,447.287233 472.484705,444.059035 C471.264544,438.925554 467.271072,432.334951 471.247895,426.494478 C478.766277,415.46061 498.395892,443.244197 502.063511,426.144577" id="ink-shape"></path>
                <path d="M422.453328,484.071323 C413.039428,483.542382 405.321042,498.151241 419.170426,496.927119 C421.822974,496.692874 427.521467,496.0254 429.060543,493.239641 C431.607265,488.622738 426.59204,484.30305 422.453328,484.071323" id="ink-shape"></path>
                <path d="M879.128453,135.801216 C875.90668,131.141141 869.151872,123.641736 863.340137,128.315926 C858.188086,132.460829 859.087024,142.691352 861.063757,147.774857 C866.380729,161.461035 878.942627,173.653448 893.158383,165.768252 C888.220034,155.876472 885.437276,144.923766 879.128453,135.801216" id="ink-shape"></path>
            </g>
        </g>
    </g>
</svg>